<mxfile host="app.diagrams.net" modified="2020-12-07T00:03:27.225Z" agent="5.0 (Windows NT 10.0; Win64; x64) AppleWebKit/537.36 (KHTML, like Gecko) Chrome/87.0.4280.88 Safari/537.36" etag="eUUpkI1ylTy_cDXwKhxA" version="13.10.9" type="github">
  <diagram id="O6zdtNQmStbpvojCZWaM" name="Page-1">
    <mxGraphModel dx="868" dy="1620" grid="1" gridSize="10" guides="1" tooltips="1" connect="1" arrows="1" fold="1" page="1" pageScale="1" pageWidth="850" pageHeight="1100" math="0" shadow="0">
      <root>
        <mxCell id="0" />
        <mxCell id="1" parent="0" />
        <mxCell id="myQUqtYvPfcLgh1cWk7M-13" value="Admin" style="swimlane;startSize=20;" vertex="1" parent="1">
          <mxGeometry x="80" y="-1060" width="120" height="320" as="geometry" />
        </mxCell>
        <mxCell id="myQUqtYvPfcLgh1cWk7M-14" value="Restaurant Owner" style="swimlane;startSize=20;" vertex="1" parent="1">
          <mxGeometry x="200" y="-1060" width="150" height="320" as="geometry">
            <mxRectangle x="180" y="-1080" width="140" height="20" as="alternateBounds" />
          </mxGeometry>
        </mxCell>
        <mxCell id="myQUqtYvPfcLgh1cWk7M-16" value="Customer" style="swimlane;startSize=20;" vertex="1" parent="1">
          <mxGeometry x="350" y="-1060" width="150" height="320" as="geometry">
            <mxRectangle x="180" y="-1080" width="140" height="20" as="alternateBounds" />
          </mxGeometry>
        </mxCell>
        <mxCell id="myQUqtYvPfcLgh1cWk7M-17" value="Find Restaurant Service" style="swimlane;startSize=20;" vertex="1" parent="1">
          <mxGeometry x="500" y="-1060" width="170" height="320" as="geometry">
            <mxRectangle x="180" y="-1080" width="140" height="20" as="alternateBounds" />
          </mxGeometry>
        </mxCell>
        <mxCell id="myQUqtYvPfcLgh1cWk7M-18" value="Restaurant Finder System" style="swimlane;" vertex="1" parent="1">
          <mxGeometry x="80" y="-1080" width="590" height="350" as="geometry">
            <mxRectangle x="80" y="-1080" width="180" height="23" as="alternateBounds" />
          </mxGeometry>
        </mxCell>
      </root>
    </mxGraphModel>
  </diagram>
</mxfile>
